<svg width="12" height="12" viewBox="0 0 12 12" fill="none" xmlns="http://www.w3.org/2000/svg">
<path d="M5.75 11.7578C4.96094 11.7578 4.21875 11.6074 3.52344 11.3066C2.82812 11.0059 2.21484 10.5898 1.68359 10.0586C1.15625 9.53125 0.742188 8.91992 0.441406 8.22461C0.140625 7.5293 -0.00976562 6.78711 -0.00976562 5.99805C-0.00976562 5.20898 0.140625 4.46875 0.441406 3.77734C0.742188 3.08203 1.15625 2.46875 1.68359 1.9375C2.21484 1.40625 2.82812 0.992188 3.52344 0.695312C4.21875 0.394531 4.95898 0.244141 5.74414 0.244141C6.5332 0.244141 7.27539 0.394531 7.9707 0.695312C8.66602 0.992188 9.27734 1.40625 9.80469 1.9375C10.3359 2.46875 10.752 3.08203 11.0527 3.77734C11.3574 4.46875 11.5098 5.20898 11.5098 5.99805C11.5098 6.78711 11.3594 7.5293 11.0586 8.22461C10.7578 8.91992 10.3418 9.53125 9.81055 10.0586C9.2793 10.5898 8.66602 11.0059 7.9707 11.3066C7.2793 11.6074 6.53906 11.7578 5.75 11.7578ZM3.95117 8.35352C4.11133 8.35352 4.24609 8.30078 4.35547 8.19531L5.75 6.78906L7.15625 8.19531C7.26172 8.30078 7.39453 8.35352 7.55469 8.35352C7.71094 8.35352 7.8418 8.30078 7.94727 8.19531C8.05273 8.08594 8.10547 7.95312 8.10547 7.79688C8.10547 7.64453 8.05078 7.51562 7.94141 7.41016L6.53516 6.00391L7.94727 4.5918C8.05664 4.48633 8.11133 4.35742 8.11133 4.20508C8.11133 4.05273 8.05859 3.92383 7.95312 3.81836C7.84766 3.70898 7.71875 3.6543 7.56641 3.6543C7.41016 3.6543 7.2793 3.71094 7.17383 3.82422L5.75 5.23047L4.34375 3.83008C4.23047 3.7207 4.09961 3.66602 3.95117 3.66602C3.79883 3.66602 3.66797 3.71875 3.55859 3.82422C3.45312 3.92969 3.40039 4.06055 3.40039 4.2168C3.40039 4.36523 3.45508 4.49219 3.56445 4.59766L4.97656 6.00391L3.56445 7.41602C3.45508 7.52539 3.40039 7.65234 3.40039 7.79688C3.40039 7.95312 3.45312 8.08594 3.55859 8.19531C3.66797 8.30078 3.79883 8.35352 3.95117 8.35352Z" fill="#6A7383"/>
</svg>
