<svg width="12" height="13" viewBox="0 0 12 13" fill="none" xmlns="http://www.w3.org/2000/svg">
<path d="M5.75 12.2578C4.96094 12.2578 4.21875 12.1074 3.52344 11.8066C2.82812 11.5059 2.21484 11.0898 1.68359 10.5586C1.15625 10.0312 0.742188 9.41992 0.441406 8.72461C0.140625 8.0293 -0.00976562 7.28711 -0.00976562 6.49805C-0.00976562 5.70898 0.140625 4.96875 0.441406 4.27734C0.742188 3.58203 1.15625 2.96875 1.68359 2.4375C2.21484 1.90625 2.82812 1.49219 3.52344 1.19531C4.21875 0.894531 4.95898 0.744141 5.74414 0.744141C6.5332 0.744141 7.27539 0.894531 7.9707 1.19531C8.66602 1.49219 9.27734 1.90625 9.80469 2.4375C10.3359 2.96875 10.752 3.58203 11.0527 4.27734C11.3574 4.96875 11.5098 5.70898 11.5098 6.49805C11.5098 7.28711 11.3594 8.0293 11.0586 8.72461C10.7578 9.41992 10.3418 10.0312 9.81055 10.5586C9.2793 11.0898 8.66602 11.5059 7.9707 11.8066C7.2793 12.1074 6.53906 12.2578 5.75 12.2578ZM5.14062 9.24023C5.35938 9.24023 5.53516 9.13867 5.66797 8.93555L8.25781 4.92188C8.30078 4.85938 8.33594 4.79492 8.36328 4.72852C8.39062 4.6582 8.4043 4.58984 8.4043 4.52344C8.4043 4.37109 8.34766 4.24805 8.23438 4.1543C8.12109 4.06055 7.99219 4.01367 7.84766 4.01367C7.66016 4.01367 7.50391 4.11523 7.37891 4.31836L5.12305 7.92773L4.07422 6.61523C4.00391 6.52539 3.93164 6.46094 3.85742 6.42188C3.7832 6.38281 3.70117 6.36328 3.61133 6.36328C3.46289 6.36328 3.33594 6.41602 3.23047 6.52148C3.12891 6.62695 3.07812 6.75391 3.07812 6.90234C3.07812 7.04688 3.13086 7.18359 3.23633 7.3125L4.57812 8.94727C4.66016 9.04492 4.74609 9.11914 4.83594 9.16992C4.92578 9.2168 5.02734 9.24023 5.14062 9.24023Z" fill="#478524"/>
</svg>
