<svg width="12" height="12" viewBox="0 0 12 12" fill="none" xmlns="http://www.w3.org/2000/svg">
<path d="M5.75 11.7578C4.96094 11.7578 4.21875 11.6074 3.52344 11.3066C2.82812 11.0059 2.21484 10.5898 1.68359 10.0586C1.15625 9.53125 0.742188 8.91992 0.441406 8.22461C0.140625 7.5293 -0.00976562 6.78711 -0.00976562 5.99805C-0.00976562 5.20898 0.140625 4.46875 0.441406 3.77734C0.742188 3.08203 1.15625 2.46875 1.68359 1.9375C2.21484 1.40625 2.82812 0.992188 3.52344 0.695312C4.21875 0.394531 4.95898 0.244141 5.74414 0.244141C6.5332 0.244141 7.27539 0.394531 7.9707 0.695312C8.66602 0.992188 9.27734 1.40625 9.80469 1.9375C10.3359 2.46875 10.752 3.08203 11.0527 3.77734C11.3574 4.46875 11.5098 5.20898 11.5098 5.99805C11.5098 6.78711 11.3594 7.5293 11.0586 8.22461C10.7578 8.91992 10.3418 9.53125 9.81055 10.0586C9.2793 10.5898 8.66602 11.0059 7.9707 11.3066C7.2793 11.6074 6.53906 11.7578 5.75 11.7578ZM3.03711 6.00391C3.03711 6.16797 3.08984 6.30469 3.19531 6.41406C3.30469 6.51953 3.44336 6.57227 3.61133 6.57227H5.18164V8.14258C5.18164 8.30664 5.23438 8.44336 5.33984 8.55273C5.44531 8.6582 5.58008 8.71094 5.74414 8.71094C5.91211 8.71094 6.04883 8.6582 6.1543 8.55273C6.26367 8.44336 6.31836 8.30664 6.31836 8.14258V6.57227H7.89453C8.05859 6.57227 8.19336 6.51953 8.29883 6.41406C8.4082 6.30469 8.46289 6.16797 8.46289 6.00391C8.46289 5.83594 8.41016 5.69922 8.30469 5.59375C8.19922 5.48438 8.0625 5.42969 7.89453 5.42969H6.31836V3.85938C6.31836 3.69141 6.26367 3.55469 6.1543 3.44922C6.04883 3.33984 5.91211 3.28516 5.74414 3.28516C5.58008 3.28516 5.44531 3.33984 5.33984 3.44922C5.23438 3.55469 5.18164 3.69141 5.18164 3.85938V5.42969H3.61133C3.44336 5.42969 3.30469 5.48438 3.19531 5.59375C3.08984 5.69922 3.03711 5.83594 3.03711 6.00391Z" fill="#6A7383"/>
</svg>
