<svg width="13" height="13" viewBox="0 0 13 13" fill="none" xmlns="http://www.w3.org/2000/svg">
<path d="M6.59961 3.1875C6.74414 3.1875 6.86719 3.23828 6.96875 3.33984C7.07031 3.44141 7.12109 3.56445 7.12109 3.70898V7.70508L6.50586 5.8125L8.43359 8.41992C8.53125 8.55664 8.57422 8.69727 8.5625 8.8418C8.55078 8.98242 8.48438 9.0957 8.36328 9.18164C8.22656 9.27148 8.08789 9.30469 7.94727 9.28125C7.80664 9.25391 7.67969 9.16797 7.56641 9.02344L6.22461 7.25391C6.12695 7.12109 6.07812 6.98633 6.07812 6.84961V3.70898C6.07812 3.56445 6.12891 3.44141 6.23047 3.33984C6.33203 3.23828 6.45508 3.1875 6.59961 3.1875ZM6.85156 12.2578C6.26172 12.2578 5.68945 12.1641 5.13477 11.9766C4.58008 11.793 4.06641 11.5371 3.59375 11.209C3.12109 10.8809 2.7168 10.5 2.38086 10.0664C2.24805 9.90625 2.1875 9.74219 2.19922 9.57422C2.21484 9.40234 2.29102 9.26758 2.42773 9.16992C2.56836 9.06055 2.71875 9.02344 2.87891 9.05859C3.04297 9.09375 3.18555 9.17969 3.30664 9.31641C3.58398 9.66797 3.9043 9.97461 4.26758 10.2363C4.63477 10.4941 5.03711 10.6934 5.47461 10.834C5.91211 10.9746 6.37109 11.0449 6.85156 11.0449C7.48438 11.0488 8.07422 10.9336 8.62109 10.6992C9.17188 10.4648 9.6543 10.1387 10.0684 9.7207C10.4863 9.30273 10.8125 8.81836 11.0469 8.26758C11.2852 7.7168 11.4043 7.12695 11.4043 6.49805C11.4043 5.86914 11.2852 5.2793 11.0469 4.72852C10.8125 4.17773 10.4863 3.69531 10.0684 3.28125C9.6543 2.86719 9.17188 2.54297 8.62109 2.30859C8.07422 2.07422 7.48438 1.95703 6.85156 1.95703C6.22266 1.95703 5.63477 2.07422 5.08789 2.30859C4.54102 2.53906 4.05859 2.85938 3.64062 3.26953C3.22656 3.67969 2.90039 4.16016 2.66211 4.71094C2.42773 5.25781 2.30859 5.84375 2.30469 6.46875H1.09766C1.10156 5.68359 1.25391 4.94531 1.55469 4.25391C1.85547 3.5625 2.26953 2.95312 2.79688 2.42578C3.32812 1.89844 3.93945 1.48633 4.63086 1.18945C5.32617 0.892578 6.06641 0.744141 6.85156 0.744141C7.64062 0.744141 8.38281 0.894531 9.07812 1.19531C9.77344 1.49219 10.3848 1.90625 10.9121 2.4375C11.4434 2.96875 11.8594 3.58203 12.1602 4.27734C12.4609 4.96875 12.6113 5.70898 12.6113 6.49805C12.6113 7.28711 12.4609 8.0293 12.1602 8.72461C11.8594 9.41992 11.4434 10.0312 10.9121 10.5586C10.3848 11.0898 9.77344 11.5059 9.07812 11.8066C8.38281 12.1074 7.64062 12.2578 6.85156 12.2578ZM0.435547 5.34375H3.24805C3.39648 5.34375 3.50781 5.37891 3.58203 5.44922C3.65625 5.51562 3.69141 5.60156 3.6875 5.70703C3.68359 5.8125 3.64258 5.91797 3.56445 6.02344L2.17578 7.93359C2.08594 8.0625 1.97461 8.12695 1.8418 8.12695C1.71289 8.12695 1.60156 8.0625 1.50781 7.93359L0.119141 6.02344C0.0371094 5.91406 -0.00585938 5.80859 -0.00976562 5.70703C-0.00976562 5.60156 0.0273438 5.51562 0.101562 5.44922C0.175781 5.37891 0.287109 5.34375 0.435547 5.34375Z" fill="#FF9900"/>
</svg>
