<svg width="7" height="5" viewBox="0 0 7 5" fill="none" xmlns="http://www.w3.org/2000/svg">
<path d="M3.39062 4.26172C3.29167 4.26172 3.20312 4.22396 3.125 4.14844L0.101562 1.05469C0.0677083 1.02083 0.0416667 0.983073 0.0234375 0.941406C0.00520833 0.897135 -0.00390625 0.85026 -0.00390625 0.800781C-0.00390625 0.733073 0.0117188 0.671875 0.0429688 0.617188C0.0742188 0.5625 0.115885 0.519531 0.167969 0.488281C0.222656 0.457031 0.283854 0.441406 0.351562 0.441406C0.450521 0.441406 0.535156 0.47526 0.605469 0.542969L3.59766 3.60156H3.17969L6.17188 0.542969C6.24479 0.47526 6.32943 0.441406 6.42578 0.441406C6.49349 0.441406 6.55339 0.457031 6.60547 0.488281C6.66016 0.519531 6.70312 0.5625 6.73438 0.617188C6.76562 0.671875 6.78125 0.733073 6.78125 0.800781C6.78125 0.897135 6.74609 0.980469 6.67578 1.05078L3.65234 4.14844C3.61849 4.1849 3.57812 4.21354 3.53125 4.23438C3.48698 4.2526 3.4401 4.26172 3.39062 4.26172Z" fill="#6A7383"/>
</svg>
